<svg width="64" height="65" viewBox="0 0 64 65" fill="none" xmlns="http://www.w3.org/2000/svg">
<path d="M17.7262 28.8172L36.7362 23.2732C50.9546 26.4683 48.0481 16.627 48.1111 0.929199L0.274381 32.3452" stroke="white"/>
<path d="M17.7262 36.0412L36.7362 41.5852C50.9546 38.3901 48.0481 48.2314 48.1111 63.9292L0.274381 32.5132" stroke="white"/>
<path d="M17.6192 36.0411L36.006 47.9691L39.2782 44.6091C43.3626 41.8931 44.2644 46.4571 44.2644 56.7051" stroke="white"/>
<path d="M44.2644 56.7051L7.95838 32.5131" stroke="white"/>
<path d="M17.6192 28.9853L36.006 17.0573L39.2782 20.4173C43.3626 23.1332 44.2644 18.5693 44.2644 8.32129" stroke="white"/>
<path d="M44.2644 8.32129L7.95838 32.5133" stroke="white"/>
<path d="M37.72 28.145L13.1004 32.345L37.72 36.881" stroke="white"/>
<path d="M63.2744 32.5133L51.2763 39.9053C46.5672 35.0088 43.6036 34.5171 37.8758 36.7133" stroke="white"/>
<path d="M63.2744 32.5131L51.2763 25.1211C46.5672 30.0175 43.6036 30.5093 37.8758 28.3131" stroke="white"/>
</svg>
