<svg width="64" height="65" viewBox="0 0 64 65" fill="none" xmlns="http://www.w3.org/2000/svg">
<path d="M45.8104 28.817L26.8004 23.273C12.582 26.4681 15.4885 16.6268 15.4255 0.928955L63.2622 32.345" stroke="white"/>
<path d="M45.8104 36.041L26.8004 41.585C12.582 38.3899 15.4885 48.2312 15.4255 63.929L63.2622 32.513" stroke="white"/>
<path d="M45.9174 36.041L27.5307 47.969L24.2585 44.609C20.174 41.893 19.2722 46.457 19.2722 56.705" stroke="white"/>
<path d="M19.2722 56.705L55.5782 32.513" stroke="white"/>
<path d="M45.9174 28.9849L27.5307 17.0569L24.2585 20.4169C20.174 23.1329 19.2722 18.5689 19.2722 8.32092" stroke="white"/>
<path d="M19.2722 8.32092L55.5782 32.5129" stroke="white"/>
<path d="M25.8167 28.145L50.4362 32.345L25.8167 36.881" stroke="white"/>
<path d="M0.262207 32.5129L12.2603 39.9049C16.9695 35.0085 19.933 34.5167 25.6608 36.7129" stroke="white"/>
<path d="M0.262207 32.513L12.2603 25.121C16.9695 30.0174 19.933 30.5092 25.6608 28.313" stroke="white"/>
</svg>
